# Blender v2.79 (sub 0) OBJ File: ''
# www.blender.org
mtllib spongeball_track_fan.mtl
o spongeball_track_fan
v -6.347964 -0.086466 -0.012869
v -5.965364 -0.086467 1.168430
v -5.965364 0.113433 1.168430
v -6.347964 0.113434 -0.012869
v -5.965364 -0.086466 -1.194070
v -5.965364 0.113434 -1.194070
v -5.212064 0.113434 0.018130
v -5.212064 0.113434 -1.694469
v -5.212064 -0.086466 -1.694469
v -5.212064 -0.086466 0.018130
v -5.211964 -0.086467 1.730830
v -5.211964 0.113433 1.730830
v -5.212064 -0.086466 -1.694469
v -5.212064 0.113434 -1.694469
v -5.211964 -0.086467 1.730830
v -5.211964 0.113433 1.730830
v -4.044464 0.113434 0.019031
v -4.044464 0.113434 -1.610669
v -4.044464 -0.086466 0.018130
v -4.044464 -0.086466 -1.610669
v -4.044464 0.113433 1.647030
v -4.044464 -0.086467 1.647030
v -5.211964 -0.086467 1.730830
v -5.211964 0.113433 1.730830
v 0.034636 -0.086466 0.018130
v 0.034636 0.113434 0.018130
v 0.034636 -0.086466 0.018130
v 0.034636 0.113434 0.018130
v 0.034636 -0.086466 0.018130
v -1.677963 0.113433 5.264831
v -1.594164 0.113433 4.097230
v -1.594164 -0.086467 4.097230
v -1.677963 -0.086467 5.264831
v -1.677963 -0.086465 -5.228470
v -1.594164 -0.086466 -4.060969
v -1.594164 0.113434 -4.060969
v -1.677963 0.113434 -5.228470
v -1.677963 0.113433 5.264831
v -1.677963 -0.086467 5.264831
v -1.115564 -0.086467 6.018130
v -1.115664 0.113433 6.018130
v -1.677963 -0.086465 -5.228470
v -1.677963 0.113434 -5.228470
v -1.115564 0.113435 -5.981870
v -1.115664 -0.086465 -5.981870
v 0.033836 -0.086467 4.097230
v 0.034636 -0.086467 5.264831
v -1.677963 -0.086467 5.264831
v 0.033836 0.113434 -4.060969
v 0.034636 0.113434 -5.228570
v -1.677963 0.113434 -5.228470
v -1.677963 0.113433 5.264831
v 0.034636 0.113433 5.264831
v 0.034636 0.113433 4.097230
v -1.677963 -0.086465 -5.228470
v 0.034636 -0.086465 -5.228570
v 0.034636 -0.086466 -4.060969
v 0.034636 -0.086466 0.018130
v 0.034636 0.113434 0.018130
v 0.034636 -0.086466 0.018130
v 0.034636 0.113434 0.018130
v 0.065636 0.113433 6.400830
v 0.065636 -0.086465 -6.364570
v 0.065636 -0.086467 6.400830
v 0.065636 0.113435 -6.364570
v -0.403065 -0.319966 0.241730
v -0.467264 -0.023966 0.288331
v -0.580364 -0.023966 -0.059770
v -0.500963 -0.319966 -0.059770
v -0.500963 0.272134 -0.059770
v -0.403065 0.272134 0.241730
v -0.467264 -0.023966 -0.407770
v -0.403065 -0.319966 -0.361169
v -0.403065 0.272134 -0.361169
v 0.034636 0.113434 0.018130
v 0.034636 -0.086466 0.018130
v -0.227764 -0.536766 0.114330
v -0.284264 -0.536766 -0.059770
v -0.284264 0.488934 -0.059770
v -0.227764 0.488934 0.114330
v -0.227764 -0.536766 -0.233770
v -0.227764 0.488934 -0.233769
v -0.146664 -0.319966 0.428030
v -0.171164 -0.023966 0.503430
v -0.146664 0.272134 0.428031
v -0.171164 -0.023966 -0.622869
v -0.146664 -0.319966 -0.547469
v -0.146664 0.272134 -0.547469
v -0.079664 -0.536766 0.221830
v -0.079664 0.488934 0.221830
v -0.079664 -0.536766 -0.341270
v -0.079664 0.488934 -0.341269
v 0.011835 -0.616066 -0.059770
v 0.011835 0.568234 -0.059770
v 0.170237 -0.319966 0.428030
v 0.194836 -0.023966 0.503430
v 0.170237 0.272134 0.428031
v 0.103336 -0.536766 0.221830
v 0.103336 0.488934 0.221830
v 0.170237 -0.319966 -0.547469
v 0.103336 -0.536766 -0.341270
v 0.103336 0.488934 -0.341269
v 0.170237 0.272134 -0.547469
v 0.194836 -0.023966 -0.622869
v 0.034636 0.113434 0.018130
v 0.034636 0.113434 0.018130
v 0.034636 -0.086466 0.018130
v 0.034636 -0.086466 0.018130
v 0.034636 -0.086466 0.018130
v 0.034636 0.113434 0.018130
v 0.034636 -0.086466 0.018130
v 0.034636 -0.086466 0.018130
v 0.034636 0.113434 0.018130
v 0.251335 -0.536766 0.114330
v 0.251335 0.488934 0.114330
v 0.251335 -0.536766 -0.233770
v 0.251335 0.488934 -0.233769
v 0.307837 -0.536766 -0.059770
v 0.251335 -0.536766 0.114330
v 0.251335 0.488934 0.114330
v 0.307837 0.488934 -0.059770
v 0.426636 -0.319966 0.241730
v 0.426636 0.272134 0.241730
v 0.426636 -0.319966 -0.361169
v 0.426636 0.272134 -0.361169
v 0.490835 -0.023966 0.288331
v 0.490835 -0.023966 -0.407770
v 0.524635 -0.319966 -0.059770
v 0.426636 -0.319966 0.241730
v 0.426636 0.272134 0.241730
v 0.524635 0.272134 -0.059770
v 1.663536 -0.086467 4.097230
v 1.663536 0.113434 -4.060969
v 1.663536 0.113433 4.097230
v 1.663536 -0.086466 -4.060969
v 0.603935 -0.023966 -0.059770
v 0.490835 -0.023966 0.288331
v 1.246937 0.113433 6.018130
v 1.246937 -0.086467 6.018130
v 1.246937 -0.086465 -5.981870
v 1.246937 0.113435 -5.981870
v 1.747335 -0.086467 5.264831
v 1.747335 0.113433 5.264831
v 1.747335 0.113434 -5.228570
v 1.747335 -0.086465 -5.228570
v 1.747335 0.113433 5.264831
v 1.747335 -0.086467 5.264831
v 1.747335 -0.086465 -5.228570
v 1.747335 0.113434 -5.228570
v 4.113735 0.113434 -1.610669
v 4.113735 0.113434 0.017331
v 4.113735 -0.086467 1.647030
v 4.113735 0.113433 1.647030
v 4.113735 -0.086466 0.018130
v 4.113735 -0.086466 -1.610669
v 5.281336 -0.086467 1.730830
v 5.281336 0.113433 1.730830
v 5.281336 -0.086466 0.018130
v 5.281336 0.113434 0.018130
v 5.281336 -0.086466 -1.694469
v 5.281336 0.113434 -1.694469
v 5.281336 -0.086466 -1.694469
v 5.281336 0.113434 -1.694469
v 5.281336 -0.086467 1.730830
v 6.034636 -0.086467 1.230431
v 6.034636 0.113433 1.230431
v 5.281336 0.113433 1.730830
v 5.281336 -0.086466 -1.694469
v 5.281336 0.113434 -1.694469
v 6.034636 0.113434 -1.132070
v 6.034636 -0.086466 -1.132170
v 6.417336 -0.086466 0.049130
v 6.417336 0.113434 0.049130
vt 0.506600 0.100700
vt 0.251500 0.044300
vt 0.251500 0.044300
vt 0.506600 0.100700
vt 0.761800 0.044300
vt 0.761800 0.044300
vt 0.500000 0.237500
vt 0.869900 0.181100
vt 0.869900 0.181100
vt 0.500000 0.237500
vt 0.130000 0.181100
vt 0.130000 0.181100
vt 0.869900 0.181100
vt 0.869900 0.181100
vt 0.130000 0.181100
vt 0.130000 0.181100
vt 0.499800 0.449400
vt 0.851800 0.393000
vt 0.499900 0.449400
vt 0.851800 0.393000
vt 0.148100 0.393000
vt 0.148100 0.393000
vt 0.130000 0.181100
vt 0.130000 0.181100
vt 0.499900 1.190000
vt 0.499900 1.190000
vt 0.499900 1.190000
vt 0.499900 1.190000
vt 0.499900 1.190000
vt 0.130000 0.181100
vt 0.148100 0.393000
vt 0.148100 0.393000
vt 0.130000 0.181100
vt 0.130000 0.181100
vt 0.148100 0.393000
vt 0.148100 0.393000
vt 0.130000 0.181100
vt 0.130000 0.181100
vt 0.130000 0.181100
vt 0.251500 0.044300
vt 0.251500 0.044300
vt 0.130000 0.181100
vt 0.130000 0.181100
vt 0.251500 0.044300
vt 0.251500 0.044300
vt 0.499800 0.449400
vt 0.500000 0.237500
vt 0.130000 0.181100
vt 0.499800 0.449400
vt 0.500000 0.237500
vt 0.130000 0.181100
vt 0.130000 0.181100
vt 0.500000 0.237500
vt 0.499900 0.449400
vt 0.130000 0.181100
vt 0.500000 0.237500
vt 0.499900 0.449400
vt 0.499900 1.190000
vt 0.499900 1.190000
vt 0.499900 1.190000
vt 0.499900 1.190000
vt 0.506600 0.100700
vt 0.506600 0.100700
vt 0.506600 0.100700
vt 0.506600 0.100700
vt 0.364300 -0.619700
vt 0.364300 -0.826600
vt 0.432100 -0.826600
vt 0.432100 -0.619700
vt 0.432100 -1.033400
vt 0.364300 -1.033400
vt 0.499900 -0.826600
vt 0.499900 -0.619700
vt 0.499900 -1.033400
vt 0.499900 1.190000
vt 0.499900 1.190000
vt 0.364300 -0.412800
vt 0.432100 -0.412800
vt 0.432100 -1.240200
vt 0.364300 -1.240200
vt 0.499900 -0.412800
vt 0.499900 -1.240200
vt 0.296500 -0.619700
vt 0.296500 -0.826600
vt 0.296500 -1.033400
vt 0.567800 -0.826600
vt 0.567800 -0.619700
vt 0.567800 -1.033400
vt 0.296500 -0.412800
vt 0.296500 -1.240200
vt 0.567800 -0.412800
vt 0.567800 -1.240200
vt 0.499900 -0.205900
vt 0.499900 -1.447100
vt 0.228600 -0.619700
vt 0.228600 -0.826600
vt 0.228600 -1.033400
vt 0.228600 -0.412800
vt 0.228600 -1.240200
vt 0.635600 -0.619700
vt 0.635600 -0.412800
vt 0.635600 -1.240200
vt 0.635600 -1.033400
vt 0.635600 -0.826600
vt 0.499900 1.190000
vt 0.499900 1.190000
vt 0.499900 1.190000
vt 0.499900 1.190000
vt 0.499900 1.190000
vt 0.499900 1.190000
vt 0.499900 1.190000
vt 0.499900 1.190000
vt 0.499900 1.190000
vt 0.160800 -0.412800
vt 0.160800 -1.240200
vt 0.703400 -0.412800
vt 0.703400 -1.240200
vt 0.771300 -0.412800
vt 0.839100 -0.412800
vt 0.839100 -1.240200
vt 0.771300 -1.240200
vt 0.160800 -0.619700
vt 0.160800 -1.033400
vt 0.703400 -0.619700
vt 0.703400 -1.033400
vt 0.160800 -0.826600
vt 0.703400 -0.826600
vt 0.771300 -0.619700
vt 0.839100 -0.619700
vt 0.839100 -1.033400
vt 0.771300 -1.033400
vt 0.851800 0.393000
vt 0.851800 0.393000
vt 0.851800 0.393000
vt 0.851800 0.393000
vt 0.771300 -0.826600
vt 0.839100 -0.826600
vt 0.761800 0.044300
vt 0.761800 0.044300
vt 0.761800 0.044300
vt 0.761800 0.044300
vt 0.869900 0.181100
vt 0.869900 0.181100
vt 0.869900 0.181100
vt 0.869900 0.181100
vt 0.869900 0.181100
vt 0.869900 0.181100
vt 0.869900 0.181100
vt 0.869900 0.181100
vt 0.148100 0.393000
vt 0.499800 0.449400
vt 0.851800 0.393000
vt 0.851800 0.393000
vt 0.499900 0.449400
vt 0.148100 0.393000
vt 0.869900 0.181100
vt 0.869900 0.181100
vt 0.500000 0.237500
vt 0.500000 0.237500
vt 0.130000 0.181100
vt 0.130000 0.181100
vt 0.130000 0.181100
vt 0.130000 0.181100
vt 0.869900 0.181100
vt 0.761800 0.044300
vt 0.761800 0.044300
vt 0.869900 0.181100
vt 0.130000 0.181100
vt 0.130000 0.181100
vt 0.251500 0.044300
vt 0.251500 0.044300
vt 0.506600 0.100700
vt 0.506600 0.100700
vn -0.6892 -0.7246 0.0000
vn -0.7199 -0.4647 0.5155
vn -0.7200 0.4646 0.5156
vn -0.6892 0.7246 -0.0000
vn -0.7042 -0.4680 -0.5340
vn -0.7042 0.4679 -0.5340
vn -0.0000 1.0000 0.0000
vn -0.1749 0.7263 -0.6647
vn -0.1749 -0.7263 -0.6647
vn 0.0000 -1.0000 -0.0000
vn -0.1921 -0.7297 0.6563
vn -0.1921 0.7297 0.6563
vn 0.1573 0.7113 -0.6850
vn 0.1573 -0.7113 -0.6850
vn 0.1573 0.7113 0.6850
vn 0.1573 -0.7113 0.6850
vn -0.0000 -0.9062 0.4229
vn -0.0001 0.9744 0.2248
vn 0.0000 -0.0635 0.5247
vn 0.0000 0.9744 0.2248
vn 0.1307 0.0000 0.3776
vn -0.6563 0.7297 0.1921
vn -0.6850 0.7113 -0.1573
vn -0.6850 -0.7113 -0.1573
vn -0.6563 -0.7297 0.1921
vn -0.6563 -0.7297 -0.1921
vn -0.6850 -0.7113 0.1573
vn -0.6850 0.7113 0.1573
vn -0.6563 0.7297 -0.1921
vn -0.6562 -0.7297 0.1921
vn -0.5155 -0.4646 0.7200
vn -0.5155 0.4646 0.7200
vn -0.5155 0.4646 -0.7200
vn -0.5156 -0.4646 -0.7199
vn -0.6563 0.7297 0.1922
vn -0.0000 -0.9062 0.4228
vn 0.0000 0.9744 0.2249
vn 0.0001 -0.9062 0.4229
vn 0.0001 0.9744 0.2248
vn -0.0000 0.7245 0.6892
vn -0.0000 -0.7245 -0.6892
vn 0.0000 -0.7245 0.6892
vn 0.0000 0.7245 -0.6892
vn -0.6995 -0.5025 0.5082
vn -0.8090 -0.0000 0.5878
vn -1.0000 -0.0000 -0.0000
vn -0.8646 -0.5025 -0.0000
vn -0.8646 0.5025 -0.0000
vn -0.6995 0.5025 0.5082
vn -0.8090 -0.0001 -0.5878
vn -0.6995 -0.5025 -0.5082
vn -0.6995 0.5025 -0.5082
vn 0.0000 0.0408 0.3378
vn 0.0000 -0.0635 0.5248
vn -0.4024 -0.8675 0.2923
vn -0.4974 -0.8675 -0.0000
vn -0.4974 0.8675 0.0000
vn -0.4024 0.8675 0.2923
vn -0.4024 -0.8675 -0.2923
vn -0.4024 0.8675 -0.2923
vn -0.2671 -0.5025 0.8223
vn -0.3090 -0.0000 0.9511
vn -0.2671 0.5024 0.8223
vn -0.3090 -0.0001 -0.9511
vn -0.2671 -0.5025 -0.8223
vn -0.2671 0.5025 -0.8223
vn -0.1537 -0.8675 0.4730
vn -0.1537 0.8675 0.4730
vn -0.1537 -0.8675 -0.4730
vn -0.1537 0.8675 -0.4730
vn 0.2671 -0.5025 0.8223
vn 0.3091 -0.0000 0.9510
vn 0.2671 0.5025 0.8223
vn 0.1537 -0.8675 0.4730
vn 0.1537 0.8675 0.4730
vn 0.2671 -0.5025 -0.8223
vn 0.1537 -0.8675 -0.4730
vn 0.1537 0.8675 -0.4730
vn 0.2671 0.5025 -0.8223
vn 0.3091 -0.0000 -0.9510
vn -0.0280 0.0000 0.2213
vn -0.0001 -0.9062 0.4228
vn 0.0764 0.0000 0.1949
vn -0.0001 -0.9062 0.4229
vn 0.1819 0.0000 0.3191
vn 0.4024 -0.8675 0.2923
vn 0.4024 0.8675 0.2923
vn 0.4024 -0.8675 -0.2924
vn 0.4024 0.8675 -0.2923
vn 0.4974 -0.8675 0.0000
vn 0.4974 0.8675 -0.0001
vn 0.6995 -0.5025 0.5082
vn 0.6995 0.5025 0.5082
vn 0.6995 -0.5024 -0.5082
vn 0.6995 0.5024 -0.5082
vn 0.8091 -0.0000 0.5877
vn 0.8090 -0.0001 -0.5878
vn 0.8646 -0.5025 -0.0000
vn 0.8646 0.5025 0.0000
vn 0.6850 -0.7113 -0.1573
vn 0.6850 0.7113 0.1573
vn 0.6850 0.7113 -0.1573
vn 0.6850 -0.7113 0.1573
vn 1.0000 -0.0000 -0.0000
vn 0.5340 0.4680 0.7041
vn 0.5340 -0.4680 0.7041
vn 0.5340 -0.4680 -0.7041
vn 0.5340 0.4680 -0.7041
vn 0.6647 -0.7263 0.1749
vn 0.6647 0.7263 0.1749
vn 0.6647 0.7263 -0.1749
vn 0.6647 -0.7263 -0.1749
vn -0.1573 0.7113 -0.6850
vn -0.1573 -0.7113 0.6850
vn -0.1573 0.7113 0.6850
vn -0.1573 -0.7113 -0.6850
vn 0.1749 -0.7263 0.6647
vn 0.1749 0.7263 0.6647
vn 0.1922 -0.7297 -0.6563
vn 0.1921 0.7297 -0.6563
vn 0.1921 -0.7297 -0.6563
vn 0.7041 -0.4680 0.5340
vn 0.7041 0.4680 0.5340
vn 0.1921 0.7297 -0.6562
vn 0.7200 0.4646 -0.5155
vn 0.7200 -0.4646 -0.5155
vn 0.6892 -0.7245 -0.0000
vn 0.6892 0.7245 -0.0000
usemtl spongeball_track_fan
s 1
f 1/1/1 2/2/2 3/3/3
f 1/1/1 3/3/3 4/4/4
f 5/5/5 1/1/1 4/4/4
f 5/5/5 4/4/4 6/6/6
f 4/4/4 7/7/7 8/8/8
f 4/4/4 8/8/8 6/6/6
f 9/9/9 10/10/10 1/1/1
f 5/5/5 9/9/9 1/1/1
f 1/1/1 10/10/10 11/11/11
f 1/1/1 11/11/11 2/2/2
f 12/12/12 7/7/7 4/4/4
f 3/3/3 12/12/12 4/4/4
f 13/13/9 5/5/5 6/6/6
f 13/13/9 6/6/6 14/14/8
f 15/15/11 16/16/12 3/3/3
f 15/15/11 3/3/3 2/2/2
f 8/8/8 7/7/7 17/17/7
f 8/8/8 17/17/7 18/18/13
f 19/19/10 10/10/10 9/9/9
f 20/20/14 19/19/10 9/9/9
f 20/20/14 9/9/9 8/8/8
f 20/20/14 8/8/8 18/18/13
f 17/17/7 7/7/7 12/12/12
f 12/12/12 21/21/15 17/17/7
f 11/11/11 10/10/10 19/19/10
f 22/22/16 11/11/11 19/19/10
f 23/23/11 22/22/16 21/21/15
f 23/23/11 21/21/15 24/24/12
f 25/25/17 26/26/18 21/21/15
f 25/25/17 21/21/15 22/22/16
f 27/27/19 25/25/17 22/22/16
f 27/27/19 22/22/16 19/19/10
f 26/26/18 28/28/20 18/18/13
f 17/17/7 26/26/18 18/18/13
f 20/20/14 29/29/21 27/27/19
f 20/20/14 27/27/19 19/19/10
f 20/20/14 18/18/13 28/28/20
f 29/29/21 20/20/14 28/28/20
f 30/30/22 31/31/23 32/32/24
f 30/30/22 32/32/24 33/33/25
f 34/34/26 35/35/27 36/36/28
f 34/34/26 36/36/28 37/37/29
f 21/21/15 26/26/18 17/17/7
f 38/38/22 39/39/30 40/40/31
f 38/38/22 40/40/31 41/41/32
f 42/42/26 43/43/29 44/44/33
f 42/42/26 44/44/33 45/45/34
f 46/46/10 47/47/10 48/48/25
f 48/48/25 32/32/24 46/46/10
f 49/49/7 50/50/7 51/51/29
f 51/51/29 36/36/28 49/49/7
f 52/52/35 53/53/7 54/54/7
f 31/31/23 52/52/35 54/54/7
f 55/55/26 56/56/10 57/57/10
f 35/35/27 55/55/26 57/57/10
f 58/58/36 32/32/24 31/31/23
f 59/59/37 58/58/36 31/31/23
f 60/60/38 61/61/39 36/36/28
f 60/60/38 36/36/28 35/35/27
f 62/62/40 53/53/7 52/52/35
f 62/62/40 52/52/35 41/41/32
f 63/63/41 56/56/10 55/55/26
f 63/63/41 55/55/26 45/45/34
f 48/48/25 47/47/10 64/64/42
f 40/40/31 48/48/25 64/64/42
f 51/51/29 50/50/7 65/65/43
f 44/44/33 51/51/29 65/65/43
f 62/62/40 41/41/32 40/40/31
f 62/62/40 40/40/31 64/64/42
f 63/63/41 45/45/34 44/44/33
f 63/63/41 44/44/33 65/65/43
f 66/66/44 67/67/45 68/68/46
f 66/66/44 68/68/46 69/69/47
f 70/70/48 68/68/46 67/67/45
f 67/67/45 71/71/49 70/70/48
f 69/69/47 68/68/46 72/72/50
f 69/69/47 72/72/50 73/73/51
f 74/74/52 72/72/50 68/68/46
f 68/68/46 70/70/48 74/74/52
f 75/75/53 59/59/37 31/31/23
f 75/75/53 31/31/23 54/54/7
f 76/76/54 60/60/38 35/35/27
f 76/76/54 35/35/27 57/57/10
f 77/77/55 66/66/44 69/69/47
f 77/77/55 69/69/47 78/78/56
f 79/79/57 70/70/48 71/71/49
f 71/71/49 80/80/58 79/79/57
f 78/78/56 69/69/47 73/73/51
f 78/78/56 73/73/51 81/81/59
f 82/82/60 74/74/52 70/70/48
f 70/70/48 79/79/57 82/82/60
f 83/83/61 84/84/62 67/67/45
f 83/83/61 67/67/45 66/66/44
f 71/71/49 67/67/45 84/84/62
f 84/84/62 85/85/63 71/71/49
f 73/73/51 72/72/50 86/86/64
f 73/73/51 86/86/64 87/87/65
f 88/88/66 86/86/64 72/72/50
f 72/72/50 74/74/52 88/88/66
f 32/32/24 58/58/36 46/46/10
f 36/36/28 61/61/39 49/49/7
f 89/89/67 83/83/61 66/66/44
f 89/89/67 66/66/44 77/77/55
f 80/80/58 71/71/49 85/85/63
f 85/85/63 90/90/68 80/80/58
f 81/81/59 73/73/51 87/87/65
f 81/81/59 87/87/65 91/91/69
f 92/92/70 88/88/66 74/74/52
f 74/74/52 82/82/60 92/92/70
f 93/93/10 77/77/55 78/78/56
f 94/94/7 79/79/57 80/80/58
f 93/93/10 78/78/56 81/81/59
f 94/94/7 82/82/60 79/79/57
f 93/93/10 89/89/67 77/77/55
f 94/94/7 80/80/58 90/90/68
f 93/93/10 81/81/59 91/91/69
f 94/94/7 92/92/70 82/82/60
f 95/95/71 96/96/72 84/84/62
f 95/95/71 84/84/62 83/83/61
f 85/85/63 84/84/62 96/96/72
f 96/96/72 97/97/73 85/85/63
f 98/98/74 95/95/71 83/83/61
f 98/98/74 83/83/61 89/89/67
f 90/90/68 85/85/63 97/97/73
f 97/97/73 99/99/75 90/90/68
f 91/91/69 87/87/65 100/100/76
f 91/91/69 100/100/76 101/101/77
f 102/102/78 103/103/79 88/88/66
f 88/88/66 92/92/70 102/102/78
f 87/87/65 86/86/64 104/104/80
f 87/87/65 104/104/80 100/100/76
f 103/103/79 104/104/80 86/86/64
f 86/86/64 88/88/66 103/103/79
f 93/93/10 98/98/74 89/89/67
f 94/94/7 90/90/68 99/99/75
f 93/93/10 91/91/69 101/101/77
f 94/94/7 102/102/78 92/92/70
f 28/28/20 26/26/18 25/25/17
f 27/27/19 29/29/21 28/28/20
f 28/28/20 25/25/17 27/27/19
f 105/105/81 106/106/20 107/107/82
f 108/108/19 109/109/17 105/105/81
f 105/105/81 107/107/82 108/108/19
f 110/110/83 61/61/39 60/60/38
f 76/76/54 111/111/84 110/110/83
f 110/110/83 60/60/38 76/76/54
f 112/112/85 58/58/36 59/59/37
f 75/75/53 113/113/20 112/112/85
f 112/112/85 59/59/37 75/75/53
f 93/93/10 114/114/86 98/98/74
f 94/94/7 99/99/75 115/115/87
f 93/93/10 101/101/77 116/116/88
f 94/94/7 117/117/89 102/102/78
f 93/93/10 118/118/90 119/119/86
f 94/94/7 120/120/87 121/121/91
f 93/93/10 116/116/88 118/118/90
f 94/94/7 121/121/91 117/117/89
f 114/114/86 122/122/92 95/95/71
f 114/114/86 95/95/71 98/98/74
f 99/99/75 97/97/73 123/123/93
f 123/123/93 115/115/87 99/99/75
f 101/101/77 100/100/76 124/124/94
f 101/101/77 124/124/94 116/116/88
f 117/117/89 125/125/95 103/103/79
f 103/103/79 102/102/78 117/117/89
f 122/122/92 126/126/96 96/96/72
f 122/122/92 96/96/72 95/95/71
f 97/97/73 96/96/72 126/126/96
f 126/126/96 123/123/93 97/97/73
f 100/100/76 104/104/80 127/127/97
f 100/100/76 127/127/97 124/124/94
f 125/125/95 127/127/97 104/104/80
f 104/104/80 103/103/79 125/125/95
f 118/118/90 128/128/98 129/129/92
f 118/118/90 129/129/92 119/119/86
f 120/120/87 130/130/93 131/131/99
f 131/131/99 121/121/91 120/120/87
f 116/116/88 124/124/94 128/128/98
f 116/116/88 128/128/98 118/118/90
f 121/121/91 131/131/99 125/125/95
f 125/125/95 117/117/89 121/121/91
f 58/58/36 112/112/85 132/132/100
f 46/46/10 58/58/36 132/132/100
f 61/61/39 110/110/83 133/133/101
f 49/49/7 61/61/39 133/133/101
f 134/134/102 113/113/20 75/75/53
f 134/134/102 75/75/53 54/54/7
f 135/135/103 111/111/84 76/76/54
f 135/135/103 76/76/54 57/57/10
f 128/128/98 136/136/104 137/137/96
f 128/128/98 137/137/96 129/129/92
f 130/130/93 137/137/96 136/136/104
f 136/136/104 131/131/99 130/130/93
f 124/124/94 127/127/97 136/136/104
f 124/124/94 136/136/104 128/128/98
f 131/131/99 136/136/104 127/127/97
f 127/127/97 125/125/95 131/131/99
f 138/138/105 62/62/40 64/64/42
f 138/138/105 64/64/42 139/139/106
f 140/140/107 63/63/41 65/65/43
f 140/140/107 65/65/43 141/141/108
f 64/64/42 47/47/10 142/142/109
f 64/64/42 142/142/109 139/139/106
f 143/143/110 53/53/7 62/62/40
f 138/138/105 143/143/110 62/62/40
f 65/65/43 50/50/7 144/144/111
f 65/65/43 144/144/111 141/141/108
f 145/145/112 56/56/10 63/63/41
f 140/140/107 145/145/112 63/63/41
f 134/134/102 132/132/100 112/112/85
f 113/113/20 134/134/102 112/112/85
f 111/111/84 135/135/103 133/133/101
f 111/111/84 133/133/101 110/110/83
f 142/142/109 47/47/10 46/46/10
f 142/142/109 46/46/10 132/132/100
f 144/144/111 50/50/7 49/49/7
f 144/144/111 49/49/7 133/133/101
f 54/54/7 53/53/7 143/143/110
f 134/134/102 54/54/7 143/143/110
f 57/57/10 56/56/10 145/145/112
f 135/135/103 57/57/10 145/145/112
f 146/146/110 138/138/105 139/139/106
f 146/146/110 139/139/106 147/147/109
f 148/148/112 140/140/107 141/141/108
f 148/148/112 141/141/108 149/149/111
f 150/150/113 106/106/20 151/151/7
f 134/134/102 143/143/110 142/142/109
f 134/134/102 142/142/109 132/132/100
f 135/135/103 145/145/112 144/144/111
f 135/135/103 144/144/111 133/133/101
f 109/109/17 152/152/114 153/153/115
f 109/109/17 153/153/115 105/105/81
f 152/152/114 109/109/17 108/108/19
f 152/152/114 108/108/19 154/154/10
f 106/106/20 105/105/81 153/153/115
f 151/151/7 106/106/20 153/153/115
f 108/108/19 107/107/82 155/155/116
f 108/108/19 155/155/116 154/154/10
f 106/106/20 150/150/113 155/155/116
f 107/107/82 106/106/20 155/155/116
f 152/152/114 156/156/117 157/157/118
f 152/152/114 157/157/118 153/153/115
f 154/154/10 158/158/10 156/156/117
f 152/152/114 154/154/10 156/156/117
f 157/157/118 159/159/7 151/151/7
f 157/157/118 151/151/7 153/153/115
f 160/160/119 158/158/10 154/154/10
f 155/155/116 160/160/119 154/154/10
f 151/151/7 159/159/7 161/161/120
f 161/161/120 150/150/113 151/151/7
f 162/162/121 155/155/116 150/150/113
f 162/162/121 150/150/113 163/163/120
f 164/164/117 165/165/122 166/166/123
f 164/164/117 166/166/123 167/167/118
f 168/168/121 169/169/124 170/170/125
f 168/168/121 170/170/125 171/171/126
f 156/156/117 158/158/10 172/172/127
f 165/165/122 156/156/117 172/172/127
f 173/173/128 159/159/7 157/157/118
f 173/173/128 157/157/118 166/166/123
f 161/161/120 159/159/7 173/173/128
f 170/170/125 161/161/120 173/173/128
f 172/172/127 158/158/10 160/160/119
f 172/172/127 160/160/119 171/171/126
f 165/165/122 172/172/127 173/173/128
f 165/165/122 173/173/128 166/166/123
f 172/172/127 171/171/126 170/170/125
f 172/172/127 170/170/125 173/173/128
